<svg width="1400" height="760" viewBox="0 0 1400 760" fill="none" xmlns="http://www.w3.org/2000/svg">
  <rect width="1400" height="760" rx="40" fill="#090A12"/>
  <rect x="34" y="34" width="1332" height="692" rx="28" fill="url(#bg)" stroke="#1F2434"/>

  <rect x="74" y="92" width="604" height="542" rx="28" fill="#0B0C13" stroke="#1E2233"/>
  <rect x="74" y="92" width="604" height="56" rx="28" fill="#11131B"/>
  <rect x="96" y="108" width="28" height="28" rx="8" fill="url(#brand)"/>
  <path d="M112.047 114L101 127.914H107.648L105.16 139.5L116.207 125.586H109.559L112.047 114Z" fill="white"/>
  <text x="138" y="128" fill="#A78BFA" font-family="Arial, Helvetica, sans-serif" font-size="18" font-weight="700">AutoNexus</text>
  <text x="164" y="290" fill="white" font-family="Arial, Helvetica, sans-serif" font-size="54" font-weight="800">Automate your workflows</text>
  <text x="164" y="354" fill="white" font-family="Arial, Helvetica, sans-serif" font-size="54" font-weight="800">with</text>
  <text x="294" y="354" fill="url(#hero)" font-family="Arial, Helvetica, sans-serif" font-size="54" font-weight="800">intelligent precision.</text>
  <text x="164" y="412" fill="#8F98B1" font-family="Arial, Helvetica, sans-serif" font-size="18">Production-grade workflow automation with live execution and a visual builder.</text>
  <rect x="164" y="454" width="198" height="48" rx="24" fill="url(#button)"/>
  <text x="190" y="484" fill="white" font-family="Arial, Helvetica, sans-serif" font-size="18" font-weight="700">Start Automating</text>
  <rect x="380" y="454" width="146" height="48" rx="24" fill="#14171F" stroke="#2A3042"/>
  <text x="417" y="484" fill="#D5DBE9" font-family="Arial, Helvetica, sans-serif" font-size="18" font-weight="700">View Features</text>

  <rect x="164" y="548" width="146" height="60" rx="18" fill="#10131B" stroke="#24283A"/>
  <rect x="330" y="548" width="146" height="60" rx="18" fill="#10131B" stroke="#24283A"/>
  <rect x="496" y="548" width="146" height="60" rx="18" fill="#15111D" stroke="#322540"/>

  <rect x="722" y="126" width="604" height="500" rx="28" fill="#11131B" stroke="#1E2233"/>
  <rect x="722" y="126" width="178" height="500" rx="28" fill="#191C28"/>
  <rect x="750" y="150" width="120" height="30" rx="15" fill="url(#brand)"/>
  <text x="787" y="170" fill="#F5F3FF" font-family="Arial, Helvetica, sans-serif" font-size="14" font-weight="700">AutoNexus</text>
  <rect x="742" y="212" width="138" height="38" rx="12" fill="#292D63" stroke="#474DB6"/>
  <text x="777" y="236" fill="#B8BEFF" font-family="Arial, Helvetica, sans-serif" font-size="14" font-weight="700">Dashboard</text>
  <text x="768" y="292" fill="#AAB0C0" font-family="Arial, Helvetica, sans-serif" font-size="14">Workflows</text>
  <text x="768" y="342" fill="#AAB0C0" font-family="Arial, Helvetica, sans-serif" font-size="14">Team</text>
  <text x="768" y="392" fill="#AAB0C0" font-family="Arial, Helvetica, sans-serif" font-size="14">API Keys</text>
  <text x="768" y="442" fill="#AAB0C0" font-family="Arial, Helvetica, sans-serif" font-size="14">Billing</text>
  <text x="768" y="492" fill="#AAB0C0" font-family="Arial, Helvetica, sans-serif" font-size="14">Settings</text>

  <text x="932" y="176" fill="#F3F4F8" font-family="Arial, Helvetica, sans-serif" font-size="24" font-weight="800">Dashboard</text>
  <text x="932" y="202" fill="#8F98B1" font-family="Arial, Helvetica, sans-serif" font-size="15">Overview of your workspace</text>
  <rect x="932" y="236" width="164" height="74" rx="18" fill="#171A24" stroke="#2A3042"/>
  <rect x="1114" y="236" width="164" height="74" rx="18" fill="#171A24" stroke="#2A3042"/>
  <rect x="932" y="332" width="346" height="126" rx="18" fill="#171A24" stroke="#2A3042"/>
  <rect x="932" y="480" width="346" height="102" rx="18" fill="#171A24" stroke="#2A3042"/>
  <text x="956" y="266" fill="#8F98B1" font-family="Arial, Helvetica, sans-serif" font-size="13">Total Workflows</text>
  <text x="956" y="292" fill="#FFFFFF" font-family="Arial, Helvetica, sans-serif" font-size="28" font-weight="800">1</text>
  <text x="1138" y="266" fill="#8F98B1" font-family="Arial, Helvetica, sans-serif" font-size="13">Active</text>
  <text x="1138" y="292" fill="#FFFFFF" font-family="Arial, Helvetica, sans-serif" font-size="28" font-weight="800">1</text>
  <text x="956" y="366" fill="#FFFFFF" font-family="Arial, Helvetica, sans-serif" font-size="20" font-weight="700">Recent Workflows</text>
  <circle cx="970" cy="408" r="5" fill="#34D399"/>
  <text x="986" y="414" fill="#E9ECF5" font-family="Arial, Helvetica, sans-serif" font-size="16" font-weight="700">Testing</text>
  <rect x="1200" y="394" width="56" height="24" rx="12" fill="#23285B"/>
  <text x="1214" y="410" fill="#9EA8FF" font-family="Arial, Helvetica, sans-serif" font-size="11" font-weight="700">manual</text>
  <text x="956" y="514" fill="#FFFFFF" font-family="Arial, Helvetica, sans-serif" font-size="20" font-weight="700">Usage This Month</text>
  <text x="956" y="544" fill="#8F98B1" font-family="Arial, Helvetica, sans-serif" font-size="13">Task Executions</text>
  <rect x="956" y="556" width="278" height="8" rx="4" fill="#202537"/>
  <rect x="956" y="556" width="42" height="8" rx="4" fill="url(#button)"/>

  <defs>
    <linearGradient id="bg" x1="84" y1="68" x2="1316" y2="710" gradientUnits="userSpaceOnUse">
      <stop stop-color="#140F2C"/>
      <stop offset="0.52" stop-color="#090A12"/>
      <stop offset="1" stop-color="#190A23"/>
    </linearGradient>
    <linearGradient id="brand" x1="96" y1="108" x2="122" y2="136" gradientUnits="userSpaceOnUse">
      <stop stop-color="#7C3AED"/>
      <stop offset="1" stop-color="#5B5CEB"/>
    </linearGradient>
    <linearGradient id="hero" x1="286" y1="320" x2="694" y2="320" gradientUnits="userSpaceOnUse">
      <stop stop-color="#7C83FF"/>
      <stop offset="0.54" stop-color="#A855F7"/>
      <stop offset="1" stop-color="#EC4899"/>
    </linearGradient>
    <linearGradient id="button" x1="164" y1="454" x2="362" y2="502" gradientUnits="userSpaceOnUse">
      <stop stop-color="#5B5CEB"/>
      <stop offset="1" stop-color="#A21BEA"/>
    </linearGradient>
  </defs>
</svg>
