<svg width="1600" height="900" viewBox="0 0 1600 900" fill="none" xmlns="http://www.w3.org/2000/svg">
  <rect width="1600" height="900" rx="36" fill="#07080F"/>
  <rect x="18" y="18" width="1564" height="864" rx="28" fill="url(#pageBg)" stroke="#1B1E2A"/>

  <rect x="18" y="18" width="1564" height="58" rx="28" fill="#0A0B13"/>
  <line x1="18" y1="76.5" x2="1582" y2="76.5" stroke="#232736"/>

  <rect x="58" y="32" width="30" height="30" rx="9" fill="url(#brand)"/>
  <path d="M75.047 38L64 51.914H70.648L68.16 63.5L79.207 49.586H72.559L75.047 38Z" fill="white"/>
  <text x="98" y="52" fill="#9C8BFF" font-family="Arial, Helvetica, sans-serif" font-size="16" font-weight="700">AutoNexus</text>

  <text x="1318" y="52" fill="#ECECF5" font-family="Arial, Helvetica, sans-serif" font-size="14" font-weight="700">Sign In</text>
  <rect x="1380" y="28" width="110" height="38" rx="19" fill="#F5F5F7"/>
  <text x="1407" y="52" fill="#15161D" font-family="Arial, Helvetica, sans-serif" font-size="14" font-weight="700">Get Started</text>

  <text x="420" y="276" fill="white" font-family="Arial, Helvetica, sans-serif" font-size="78" font-weight="800">Automate your workflows</text>
  <text x="470" y="368" fill="white" font-family="Arial, Helvetica, sans-serif" font-size="78" font-weight="800">with</text>
  <text x="585" y="368" fill="url(#headline)" font-family="Arial, Helvetica, sans-serif" font-size="78" font-weight="800">intelligent precision.</text>

  <text x="536" y="460" fill="#93A0B8" font-family="Arial, Helvetica, sans-serif" font-size="18">The production-grade, multi-tenant SaaS platform that empowers your</text>
  <text x="528" y="495" fill="#93A0B8" font-family="Arial, Helvetica, sans-serif" font-size="18">team to build, monitor, and scale complex automated workflows visually.</text>

  <rect x="614" y="542" width="215" height="54" rx="27" fill="url(#cta)"/>
  <text x="645" y="575" fill="white" font-family="Arial, Helvetica, sans-serif" font-size="18" font-weight="700">Start Automating Free</text>
  <path d="M790 563L799 570L790 577" stroke="white" stroke-width="2.4" stroke-linecap="round" stroke-linejoin="round"/>

  <rect x="844" y="542" width="140" height="54" rx="27" fill="#13151D" stroke="#262A3A"/>
  <text x="879" y="575" fill="#E6E8EF" font-family="Arial, Helvetica, sans-serif" font-size="18" font-weight="700">View Features</text>

  <rect x="278" y="690" width="330" height="180" rx="22" fill="#0B0C12" stroke="#262A39"/>
  <rect x="636" y="690" width="330" height="180" rx="22" fill="#0B0C12" stroke="#262A39"/>
  <rect x="994" y="690" width="330" height="180" rx="22" fill="#160E1C" stroke="#3A2841"/>

  <rect x="304" y="718" width="44" height="44" rx="12" fill="#171C46"/>
  <path d="M320 734H332V746H320V734Z" stroke="#8F92FF" stroke-width="2"/>
  <path d="M329 743H341V755H329V743Z" stroke="#8F92FF" stroke-width="2"/>
  <text x="304" y="810" fill="white" font-family="Arial, Helvetica, sans-serif" font-size="18" font-weight="700">Visual DAG Editor</text>
  <text x="304" y="844" fill="#9BA5BB" font-family="Arial, Helvetica, sans-serif" font-size="16">Build complex workflows by connecting nodes</text>
  <text x="304" y="870" fill="#9BA5BB" font-family="Arial, Helvetica, sans-serif" font-size="16">visually. Built on React Flow for flexibility.</text>

  <rect x="662" y="718" width="44" height="44" rx="12" fill="#34164B"/>
  <path d="M676 742H682L687 732L693 750L699 740H706" stroke="#B77CFF" stroke-width="2.5" stroke-linecap="round" stroke-linejoin="round"/>
  <text x="662" y="810" fill="white" font-family="Arial, Helvetica, sans-serif" font-size="18" font-weight="700">Real-time Execution</text>
  <text x="662" y="844" fill="#9BA5BB" font-family="Arial, Helvetica, sans-serif" font-size="16">Watch your workflows execute in real time with</text>
  <text x="662" y="870" fill="#9BA5BB" font-family="Arial, Helvetica, sans-serif" font-size="16">our WebSocket-powered Celery backend.</text>

  <rect x="1020" y="718" width="44" height="44" rx="12" fill="#4B1639"/>
  <path d="M1034 741C1034 737.686 1036.69 735 1040 735H1044C1047.31 735 1050 737.686 1050 741V745H1054V755H1030V745H1034V741Z" stroke="#FF70BE" stroke-width="2"/>
  <text x="1020" y="810" fill="white" font-family="Arial, Helvetica, sans-serif" font-size="18" font-weight="700">Multi-Tenant Secure</text>
  <text x="1020" y="844" fill="#B3A2BC" font-family="Arial, Helvetica, sans-serif" font-size="16">Enterprise-grade security with isolated</text>
  <text x="1020" y="870" fill="#B3A2BC" font-family="Arial, Helvetica, sans-serif" font-size="16">workspaces, RBAC, and encrypted API keys.</text>

  <defs>
    <linearGradient id="pageBg" x1="106" y1="94" x2="1516" y2="864" gradientUnits="userSpaceOnUse">
      <stop stop-color="#171235"/>
      <stop offset="0.44" stop-color="#07080F"/>
      <stop offset="1" stop-color="#1A0822"/>
    </linearGradient>
    <linearGradient id="brand" x1="58" y1="32" x2="88" y2="62" gradientUnits="userSpaceOnUse">
      <stop stop-color="#7D3AED"/>
      <stop offset="1" stop-color="#5B5CEB"/>
    </linearGradient>
    <linearGradient id="headline" x1="585" y1="308" x2="1138" y2="308" gradientUnits="userSpaceOnUse">
      <stop stop-color="#7884FF"/>
      <stop offset="0.55" stop-color="#B048F0"/>
      <stop offset="1" stop-color="#FF5FA5"/>
    </linearGradient>
    <linearGradient id="cta" x1="614" y1="542" x2="829" y2="596" gradientUnits="userSpaceOnUse">
      <stop stop-color="#5146F5"/>
      <stop offset="1" stop-color="#A11BEB"/>
    </linearGradient>
  </defs>
</svg>
